<?xml version="1.0" standalone="no"?>
<!DOCTYPE svg PUBLIC "-//W3C//DTD SVG 20010904//EN"
 "http://www.w3.org/TR/2001/REC-SVG-20010904/DTD/svg10.dtd">
<svg version="1.0" xmlns="http://www.w3.org/2000/svg"
 width="700.000000pt" height="700.000000pt" viewBox="0 0 700.000000 700.000000"
 preserveAspectRatio="xMidYMid meet">
<metadata>
Created by potrace 1.11, written by Peter Selinger 2001-2013
</metadata>
<g transform="translate(0.000000,700.000000) scale(0.100000,-0.100000)"
fill="#000000" stroke="none">
<path d="M1710 6009 c-79 -4 -115 -11 -146 -27 -55 -28 -107 -81 -135 -139
l-24 -48 -2 -1870 c-1 -1830 -1 -1870 18 -1921 24 -64 81 -125 148 -159 l50
-25 562 0 c389 0 573 3 599 11 89 27 179 130 195 224 2 17 5 317 6 667 l2 637
25 -47 c67 -125 190 -255 289 -303 62 -31 68 -32 196 -32 82 0 147 5 172 13
111 36 224 151 341 346 8 14 11 -148 12 -617 1 -350 6 -655 11 -678 20 -90 78
-158 171 -200 44 -20 64 -21 610 -21 l565 0 52 24 c67 32 127 95 152 159 19
51 19 94 17 1922 l-1 1870 -24 49 c-31 63 -82 113 -144 142 l-51 23 -680 1
c-751 1 -738 2 -808 -63 -85 -78 -91 -169 -28 -424 25 -100 39 -132 108 -251
101 -175 128 -233 145 -308 26 -113 7 -224 -82 -466 -96 -262 -244 -592 -293
-654 -59 -76 -108 -104 -179 -104 -34 0 -34 6 -9 -135 10 -60 17 -111 16 -113
-5 -4 -42 61 -51 87 -8 26 -21 27 -29 4 -7 -22 -42 -83 -54 -95 -5 -5 -4 13 3
40 8 28 16 74 20 104 3 29 8 65 11 81 4 25 2 27 -33 27 -54 0 -116 34 -157 87
-63 81 -201 381 -307 670 -70 191 -93 283 -92 378 1 114 28 181 171 425 48 82
68 128 87 205 66 256 62 359 -15 434 -74 71 -66 71 -720 73 -322 2 -632 0
-690 -3z"/>
<path d="M3095 4797 c-10 -32 -16 -75 -22 -138 l-5 -69 72 -100 c106 -147 115
-137 96 95 -11 133 -20 158 -64 187 -50 33 -72 40 -77 25z"/>
<path d="M3838 4779 c-61 -40 -65 -54 -83 -322 -4 -45 -1 -59 10 -63 17 -7 33
10 111 119 l56 78 -5 62 c-8 97 -18 145 -32 150 -6 3 -32 -8 -57 -24z"/>
<path d="M1410 1581 c-10 -20 -14 -550 -4 -576 7 -16 41 -20 62 -7 9 6 12 56
12 197 l1 188 98 -194 c132 -259 121 -259 249 -7 53 103 97 186 98 185 1 -1 4
-76 5 -167 4 -214 4 -212 43 -208 l31 3 2 293 2 293 -22 8 c-15 6 -27 4 -37
-5 -8 -7 -64 -112 -125 -233 -60 -121 -113 -220 -117 -220 -4 -1 -39 63 -79
142 -74 147 -159 310 -164 315 -12 12 -46 8 -55 -7z"/>
<path d="M2931 1591 c-16 -11 -19 -30 -20 -133 l-1 -87 -42 19 c-77 35 -179
21 -236 -33 -54 -50 -80 -143 -60 -215 40 -146 224 -202 339 -104 72 62 78 89
76 333 -2 205 -3 212 -23 219 -11 5 -26 5 -33 1z m-98 -272 c68 -35 95 -115
62 -179 -33 -64 -112 -91 -176 -59 -92 46 -100 172 -14 229 33 22 95 26 128 9z"/>
<path d="M3444 1590 c-12 -5 -23 -19 -25 -32 -7 -40 -2 -544 5 -556 10 -16 53
-15 63 1 4 6 9 55 10 107 0 52 2 105 2 118 1 22 3 22 136 22 l135 0 0 -114 c0
-130 4 -146 34 -146 45 0 46 9 46 307 0 259 -1 283 -17 291 -20 10 -44 5 -55
-12 -4 -6 -8 -64 -8 -128 l0 -118 -134 0 c-98 0 -135 3 -138 13 -2 6 -4 60 -3
119 2 87 -1 110 -14 122 -11 9 -23 11 -37 6z"/>
<path d="M4841 1586 c-14 -17 -22 -537 -9 -573 5 -16 16 -23 33 -23 31 0 34 7
38 96 3 67 16 104 39 104 10 0 22 -13 126 -128 54 -59 71 -72 92 -70 45 5 38
41 -22 111 -29 34 -62 72 -73 86 -11 13 -25 29 -32 36 -10 10 5 25 73 70 74
50 85 61 82 84 -5 46 -38 38 -157 -38 -60 -39 -114 -71 -118 -71 -5 0 -9 68
-10 152 -1 134 -3 153 -19 165 -23 16 -29 16 -43 -1z"/>
<path d="M2196 1390 c-52 -26 -63 -37 -92 -86 -61 -104 -21 -239 88 -295 50
-25 141 -25 189 0 35 19 36 19 47 0 16 -25 59 -25 67 -1 11 37 3 236 -12 272
-44 108 -183 162 -287 110z m126 -64 c104 -23 130 -165 42 -233 -42 -31 -106
-35 -148 -8 -57 38 -79 131 -42 187 18 28 90 69 110 63 6 -2 23 -6 38 -9z"/>
<path d="M3062 1398 c-13 -13 -18 -361 -6 -392 7 -19 45 -21 62 -4 8 8 12 50
12 122 0 92 3 116 20 143 29 48 72 66 141 60 60 -5 79 3 79 34 0 48 -117 66
-196 30 -40 -18 -41 -18 -52 0 -14 22 -42 25 -60 7z"/>
<path d="M4055 1403 c-24 -6 -83 -49 -107 -78 -36 -43 -47 -148 -23 -210 15
-36 56 -80 98 -102 53 -29 135 -30 194 -4 40 19 41 19 46 0 6 -21 51 -27 63
-8 4 6 6 67 5 136 -1 136 -9 162 -62 214 -52 51 -135 71 -214 52z m135 -89
c88 -53 81 -186 -12 -233 -87 -43 -188 22 -188 120 0 42 5 53 38 89 35 36 44
40 86 40 27 0 60 -7 76 -16z"/>
<path d="M4524 1395 c-17 -8 -46 -29 -64 -47 -106 -106 -71 -285 68 -344 90
-39 230 2 232 68 0 32 -35 40 -75 17 -49 -29 -105 -29 -149 2 -75 51 -79 148
-10 209 43 37 97 40 162 9 39 -20 45 -20 59 -6 64 64 -117 138 -223 92z"/>
<path d="M5333 1391 c-67 -31 -93 -87 -69 -146 14 -34 41 -47 189 -96 37 -13
67 -29 67 -36 0 -20 -71 -51 -109 -47 -19 2 -49 15 -66 28 -42 33 -64 35 -81
10 -13 -19 -12 -24 7 -48 38 -48 94 -69 172 -63 57 4 74 9 105 34 48 39 60 79
37 126 -17 37 -42 50 -175 93 -77 25 -88 36 -59 63 36 33 104 29 163 -10 l48
-32 21 21 21 22 -20 27 c-49 67 -166 92 -251 54z"/>
</g>
</svg>
