<?xml version="1.0" encoding="UTF-8" standalone="no"?>
<svg
   xmlns:dc="http://purl.org/dc/elements/1.1/"
   xmlns:cc="http://creativecommons.org/ns#"
   xmlns:rdf="http://www.w3.org/1999/02/22-rdf-syntax-ns#"
   xmlns:svg="http://www.w3.org/2000/svg"
   xmlns="http://www.w3.org/2000/svg"
   xmlns:sodipodi="http://sodipodi.sourceforge.net/DTD/sodipodi-0.dtd"
   xmlns:inkscape="http://www.inkscape.org/namespaces/inkscape"
   viewBox="0 0 600 718.45"
   version="1.1"
   id="svg38"
   sodipodi:docname="MadrHacks_Logo.svg"
   inkscape:version="0.92.4 5da689c313, 2019-01-14">
  <metadata
     id="metadata42">
    <rdf:RDF>
      <cc:Work
         rdf:about="">
        <dc:format>image/svg+xml</dc:format>
        <dc:type
           rdf:resource="http://purl.org/dc/dcmitype/StillImage" />
      </cc:Work>
    </rdf:RDF>
  </metadata>
  <sodipodi:namedview
     pagecolor="#ffffff"
     bordercolor="#666666"
     borderopacity="1"
     objecttolerance="10"
     gridtolerance="10"
     guidetolerance="10"
     inkscape:pageopacity="0"
     inkscape:pageshadow="2"
     inkscape:window-width="1920"
     inkscape:window-height="1016"
     id="namedview40"
     showgrid="false"
     inkscape:zoom="1.3139397"
     inkscape:cx="221.20325"
     inkscape:cy="430.26867"
     inkscape:window-x="0"
     inkscape:window-y="27"
     inkscape:window-maximized="1"
     inkscape:current-layer="Picture" />
  <defs
     id="defs4">
    <style
       id="style2">.cls-1{fill:#00755c;}</style>
  </defs>
  <title
     id="title6">Risorsa 1</title>
  <g
     id="Livello_2"
     data-name="Livello 2">
    <g
       id="Logo">
      <g
         id="Text">
        <path
           class="cls-1"
           d="m 0,712.66 v -75.79 a 5.78,5.78 0 0 1 0.44,-2.27 5.45,5.45 0 0 1 1.23,-1.85 5.53,5.53 0 0 1 1.82,-1.23 5.93,5.93 0 0 1 2.3,-0.44 5.56,5.56 0 0 1 5.13,3.11 l 32.76,65.47 32.77,-65.47 a 5.89,5.89 0 0 1 5.13,-3.11 6,6 0 0 1 2.27,0.44 5.55,5.55 0 0 1 1.85,1.23 5.45,5.45 0 0 1 1.23,1.85 6,6 0 0 1 0.44,2.27 v 75.79 a 5.79,5.79 0 1 1 -11.58,0 v -51.22 l -27.08,54.11 a 5.49,5.49 0 0 1 -5,2.9 5.57,5.57 0 0 1 -5.29,-3.5 L 11.58,661.44 v 51.22 a 5.6,5.6 0 0 1 -1.7,4.1 5.59,5.59 0 0 1 -4.09,1.69 5.62,5.62 0 0 1 -4.1,-1.69 5.59,5.59 0 0 1 -1.69,-4.1 z"
           id="path8"
           inkscape:connector-curvature="0"
           style="fill:#00755c" />
        <path
           class="cls-1"
           d="m 145.85,712.77 v -1.09 a 31.3,31.3 0 0 1 -8.9,5 30.69,30.69 0 0 1 -31.89,-7.21 30.58,30.58 0 0 1 21.62,-52.2 30.57,30.57 0 0 1 30.58,30.58 v 24.9 a 5.68,5.68 0 0 1 -5.68,5.68 5.52,5.52 0 0 1 -4.06,-1.67 5.42,5.42 0 0 1 -1.67,-3.99 z M 126.68,668.7 a 18.57,18.57 0 0 0 -7.53,1.53 19.26,19.26 0 0 0 -10.15,10.21 19.15,19.15 0 0 0 0,14.86 19.26,19.26 0 0 0 10.13,10.21 19.17,19.17 0 0 0 15,0 19.47,19.47 0 0 0 10.19,-10.24 19,19 0 0 0 0,-14.8 19.74,19.74 0 0 0 -4.1,-6.09 19.41,19.41 0 0 0 -6.09,-4.15 18.43,18.43 0 0 0 -7.45,-1.53 z"
           id="path10"
           inkscape:connector-curvature="0"
           style="fill:#00755c" />
        <path
           class="cls-1"
           d="m 196.58,657.29 a 29.57,29.57 0 0 1 19.16,6.71 v -27.24 a 5.52,5.52 0 0 1 5.68,-5.68 5.64,5.64 0 0 1 4.07,1.61 5.44,5.44 0 0 1 1.67,4.07 v 51.11 a 29.21,29.21 0 0 1 -9,21.62 30.58,30.58 0 1 1 -21.62,-52.2 z m 19.16,30.58 a 18.44,18.44 0 0 0 -1.5,-7.4 19.71,19.71 0 0 0 -4.09,-6.09 19.41,19.41 0 0 0 -6.09,-4.15 19.2,19.2 0 0 0 -15,0 19.26,19.26 0 0 0 -10.13,10.21 19.15,19.15 0 0 0 0,14.86 19.26,19.26 0 0 0 10.07,10.21 19.2,19.2 0 0 0 15,0 19.4,19.4 0 0 0 10.18,-10.24 18.44,18.44 0 0 0 1.56,-7.4 z"
           id="path12"
           inkscape:connector-curvature="0"
           style="fill:#00755c" />
        <path
           class="cls-1"
           d="m 247.09,663 v 1.09 a 31.3,31.3 0 0 1 8.9,-5 29.64,29.64 0 0 1 10.26,-1.75 43.35,43.35 0 0 1 5.16,0.33 22.91,22.91 0 0 1 5.08,1.17 10.88,10.88 0 0 1 3.85,2.32 5.09,5.09 0 0 1 1.53,3.83 5.36,5.36 0 0 1 -0.46,2.23 6.13,6.13 0 0 1 -1.23,1.83 5.34,5.34 0 0 1 -1.8,1.23 5.74,5.74 0 0 1 -2.24,0.44 6.07,6.07 0 0 1 -2.4,-0.6 20.15,20.15 0 0 0 -7.49,-1.37 18.62,18.62 0 0 0 -7.48,1.51 19.12,19.12 0 0 0 -10.18,10.18 18.75,18.75 0 0 0 -1.5,7.48 v 24.9 a 5.7,5.7 0 0 1 -5.68,5.68 5.55,5.55 0 0 1 -4.07,-1.67 5.45,5.45 0 0 1 -1.66,-4 V 663 a 5.45,5.45 0 0 1 1.66,-4 5.55,5.55 0 0 1 4.07,-1.67 5.7,5.7 0 0 1 5.68,5.68 z"
           id="path14"
           inkscape:connector-curvature="0"
           style="fill:#00755c" />
        <path
           class="cls-1"
           d="m 350.18,712.66 a 5.79,5.79 0 1 1 -11.57,0 v -32.11 h -38.94 v 32.11 a 5.79,5.79 0 1 1 -11.57,0 v -75.79 a 5.79,5.79 0 1 1 11.57,0 V 669 h 38.94 v -32.13 a 5.79,5.79 0 1 1 11.57,0 z"
           id="path16"
           inkscape:connector-curvature="0"
           style="fill:#00755c" />
        <path
           class="cls-1"
           d="m 408,712.77 v -1.09 a 31.17,31.17 0 0 1 -8.9,5 30.59,30.59 0 1 1 20.32,-28.83 v 24.9 a 5.7,5.7 0 0 1 -5.68,5.68 5.55,5.55 0 0 1 -4.07,-1.67 5.46,5.46 0 0 1 -1.67,-3.99 z M 388.79,668.7 a 18.58,18.58 0 0 0 -7.54,1.53 19.26,19.26 0 0 0 -10.13,10.21 19.15,19.15 0 0 0 0,14.86 19.26,19.26 0 0 0 10.13,10.21 19.2,19.2 0 0 0 15,0 19.4,19.4 0 0 0 10.18,-10.24 19,19 0 0 0 0,-14.8 19.71,19.71 0 0 0 -4.09,-6.09 19.41,19.41 0 0 0 -6.09,-4.15 18.47,18.47 0 0 0 -7.46,-1.53 z"
           id="path18"
           inkscape:connector-curvature="0"
           style="fill:#00755c" />
        <path
           class="cls-1"
           d="m 474.63,701.14 a 5.52,5.52 0 0 1 5.68,5.68 5.77,5.77 0 0 1 -1.81,4.2 30.58,30.58 0 1 1 0,-46.3 5.54,5.54 0 0 1 2,4.31 5.64,5.64 0 0 1 -1.61,4.1 5.48,5.48 0 0 1 -4.07,1.63 5.74,5.74 0 0 1 -3.71,-1.31 21.37,21.37 0 0 0 -5.85,-3.55 18,18 0 0 0 -6.66,-1.2 18.62,18.62 0 0 0 -7.48,1.51 19.45,19.45 0 0 0 -6.12,4.09 19,19 0 0 0 -4.13,6.09 19.4,19.4 0 0 0 0,15 19,19 0 0 0 4.13,6.09 19.45,19.45 0 0 0 6.11,4.09 18.62,18.62 0 0 0 7.48,1.51 18.42,18.42 0 0 0 6.66,-1.18 19.53,19.53 0 0 0 5.79,-3.52 6.18,6.18 0 0 1 3.59,-1.24 z"
           id="path20"
           inkscape:connector-curvature="0"
           style="fill:#00755c" />
        <path
           class="cls-1"
           d="m 489.15,712.72 v -75.91 a 5.71,5.71 0 1 1 11.41,0 v 42.6 l 32.66,-21.25 a 5.57,5.57 0 0 1 3.06,-0.87 5.69,5.69 0 0 1 2.23,0.44 5.29,5.29 0 0 1 1.81,1.23 6.13,6.13 0 0 1 1.23,1.83 5.43,5.43 0 0 1 0.45,2.21 5.09,5.09 0 0 1 -2.18,4.53 l -22.82,14.82 23.48,26.43 a 5.81,5.81 0 0 1 1.58,4 5.43,5.43 0 0 1 -0.46,2.18 6.13,6.13 0 0 1 -1.23,1.83 5.29,5.29 0 0 1 -1.81,1.23 5.69,5.69 0 0 1 -2.23,0.44 5.28,5.28 0 0 1 -3.83,-1.48 l -25.22,-28.34 -6.72,4.36 v 19.72 a 5.57,5.57 0 0 1 -1.66,4 5.67,5.67 0 0 1 -8.08,0 5.58,5.58 0 0 1 -1.67,-4 z"
           id="path22"
           inkscape:connector-curvature="0"
           style="fill:#00755c" />
        <path
           class="cls-1"
           d="m 561.56,689.34 c -3.42,-1.31 -5.83,-2.65 -7.21,-4 v 0 a 13.62,13.62 0 0 1 -4.15,-9.88 13.32,13.32 0 0 1 2.22,-7.51 19.81,19.81 0 0 1 5.76,-5.7 28.8,28.8 0 0 1 8,-3.64 32.22,32.22 0 0 1 8.92,-1.28 q 13.67,0 23.43,11 a 5.31,5.31 0 0 1 1.15,3.44 5.52,5.52 0 0 1 -5.68,5.68 4.6,4.6 0 0 1 -3,-1 26.19,26.19 0 0 1 -2.37,-2.13 18.47,18.47 0 0 0 -13.55,-5.57 q -7.86,0 -12.55,4.81 a 3.21,3.21 0 0 0 -0.88,2.4 2.06,2.06 0 0 0 1.42,2.08 l 25.56,8.41 c 3.56,1.38 6,2.73 7.2,4 v 0 a 13.58,13.58 0 0 1 4.15,9.88 13.39,13.39 0 0 1 -2.21,7.54 20.58,20.58 0 0 1 -5.76,5.7 27.72,27.72 0 0 1 -8,3.63 32.39,32.39 0 0 1 -8.91,1.26 q -13.75,0 -23.42,-10.87 a 5.72,5.72 0 0 1 -1.2,-3.55 5.51,5.51 0 0 1 5.68,-5.68 4.54,4.54 0 0 1 3,1.07 c 0.84,0.71 1.61,1.39 2.3,2.05 a 18.49,18.49 0 0 0 13.69,5.52 q 7.82,0 12.56,-4.92 a 3.24,3.24 0 0 0 0.82,-2.24 2.14,2.14 0 0 0 -1.47,-2.13 z"
           id="path24"
           inkscape:connector-curvature="0"
           style="fill:#00755c" />
      </g>
      <g
         id="Picture">
        <path
           style="fill:#00755c"
           d="M 42.089844,0 A 42.08,42.08 0 0 0 0,42.089844 V 557.91016 A 42.08,42.08 0 0 0 42.089844,600 H 183.86914 a 42.08,42.08 0 0 0 42.07031,-42.08984 V 378.65039 c 0,0 17.92961,40.26 48.34961,53 5.9,2.48 14.57094,2.91992 25.71094,2.91992 11.14,0 19.81094,-0.43992 25.71094,-2.91992 30.42,-12.74 48.34961,-53 48.34961,-53 V 557.91016 A 42.08,42.08 0 0 0 416.13086,600 h 141.7793 A 42.08,42.08 0 0 0 600,557.91016 V 42.089844 A 42.08,42.08 0 0 0 557.91016,0 H 384.18945 c -22.93,0 -42.58922,12.300156 -38.69922,39.910156 2.63,18.56 7.19891,40.789766 11.62891,49.509766 10,19.729998 32.4707,47.209458 32.4707,72.939458 0,11.31 -2.79062,23.44078 -6.89062,35.55078 -11.32,33.41 -25.58008,66.26945 -32.58008,81.43945 -8.47,18.38 -20,45.34961 -37.25,45.34961 H 304.5 c 0,0 3.18031,36.85133 7.57031,38.11133 -4.07,0.33 -12.07031,-19.90039 -12.07031,-19.90039 0,0 -8.00031,20.23039 -12.07031,19.90039 4.39,-1.26 7.57031,-38.11133 7.57031,-38.11133 h -8.36914 c -17.25,0 -28.78,-26.96961 -37.25,-45.34961 -7,-15.17 -21.26008,-48.02945 -32.58008,-81.43945 -4.1,-12.11 -6.89062,-24.24078 -6.89062,-35.55078 0,-25.73 22.4707,-53.20946 32.4707,-72.939458 4.43,-8.72 8.99891,-30.949766 11.62891,-49.509766 C 258.39977,12.300156 238.74055,0 215.81055,0 Z"
           id="path27"
           inkscape:connector-curvature="0" />
        <path
           class="cls-1"
           d="m 358.88,175.56 2.94,22.91 a 11.56,11.56 0 0 1 -2.16,8.34 l -17.77,24.24 a 3.51,3.51 0 0 1 -6.33,-2.37 l 3.44,-40.1 a 13.49,13.49 0 0 1 6.2,-10.24 l 8.32,-5.29 a 3.5,3.5 0 0 1 5.36,2.51 z"
           id="path31"
           inkscape:connector-curvature="0"
           style="fill:#00755c" />
        <path
           class="cls-1"
           d="m 241.12,175.56 -2.94,22.91 a 11.56,11.56 0 0 0 2.16,8.34 l 17.77,24.24 a 3.51,3.51 0 0 0 6.33,-2.37 L 261,188.58 a 13.49,13.49 0 0 0 -6.2,-10.24 l -8.32,-5.29 a 3.5,3.5 0 0 0 -5.36,2.51 z"
           id="path33"
           inkscape:connector-curvature="0"
           style="fill:#00755c" />
      </g>
    </g>
  </g>
</svg>
